<svg xmlns="http://www.w3.org/2000/svg" xmlns:xlink="http://www.w3.org/1999/xlink" viewBox="0 0 72 72">
<g stroke-width="3" stroke-linejoin="round">
<polygon fill="#333" points="48,32 24,56 16,56 16,48 32,32"/>
<path fill="#333" stroke="#333" d="M48,16c0,0,0-4,4-4s8,4,8,8s-4,4-4,4"/>
<circle fill="#333" stroke="#333" cx="60" cy="12" r="8"/>
<polygon fill="none" stroke="#333" points="32,32 16,48 16,56 24,56 48,32 56,24 48,16"/>
<path fill="#333" stroke="#333" d="M14.9,67.2c-1.1,0-2.2-0.6-3.2-1.9c-0.8-1-1.1-1.9-0.9-3c0.4-2.5,3.2-4.6,4.3-5.4c2.4,1.6,3.8,3.3,4.1,5.1
	c0.3,1.9-0.8,3.3-0.8,3.3C18.4,65.3,16.8,67.2,14.9,67.2L14.9,67.2z"/>
</g></svg>